<?xml version="1.0" encoding="UTF-8" standalone="no"?>
<svg width="290px" height="119px" viewBox="0 0 290 119" version="1.1" xmlns="http://www.w3.org/2000/svg" xmlns:xlink="http://www.w3.org/1999/xlink" xmlns:sketch="http://www.bohemiancoding.com/sketch/ns">
    <!-- Generator: Sketch 3.3.3 (12081) - http://www.bohemiancoding.com/sketch -->
    <title>logo</title>
    <desc>Created with Sketch.</desc>
    <defs></defs>
    <g id="Logos" stroke="none" stroke-width="1" fill="none" fill-rule="evenodd" sketch:type="MSPage">
        <g id="Logo-QuizStud-RGB" sketch:type="MSLayerGroup" transform="translate(-3.000000, 0.000000)">
            <g id="logo" transform="translate(3.000000, 0.000000)" sketch:type="MSShapeGroup">
                <path d="M168.6,56.5 L168.7,56.5 L168.6,56.5 Z" id="Shape" fill="#F9B233"></path>
                <path d="M172.1,51.4 C169.9,49.2 166,45.3 163.1,42.4 C163.9,39.5 164.3,36.5 164.3,33.4 C164.3,15 149.3,-7.10542736e-15 130.9,-7.10542736e-15 C112.5,-7.10542736e-15 97.5,15 97.5,33.4 C97.5,51.8 112.5,66.8 130.9,66.8 C140.1,66.8 148.3,63.1 154.4,57.2 L170,57.2 C174.2,57.1 175.2,54.4 172.1,51.4 L172.1,51.4 Z" id="Shape" fill="#333333"></path>
                <path d="M70.6,114.6 C66.4,114.6 62.8,113 60,109.8 C57.2,106.6 56.4,102.7 56.4,98.1 L56.4,87.1 C56.4,86.1 56.4,85.4 56.5,84.9 C56.6,84.4 56.7,83.9 57,83.3 C57.6,82.2 58.7,81.6 61.4,81.6 C64.3,81.6 66.1,82.4 66.6,84 C66.9,84.7 67,85.7 67,87.2 L67,98.8 C67,100.5 67.5,101.9 68.5,102.8 C69.5,103.8 70.8,104.2 72.5,104.2 C74.2,104.2 75.5,103.7 76.5,102.7 C77.5,101.7 78,100.4 78,98.7 L78,87 C78,86 78,85.3 78.1,84.8 C78.2,84.3 78.4,83.8 78.7,83.1 C79.2,82 80.9,81.5 83.6,81.5 C86.2,81.5 87.4,82.1 88,83.2 C88.3,83.8 88.5,84.4 88.5,84.9 C88.6,85.4 88.6,86.1 88.6,87.1 L88.6,109.4 C88.6,110.3 88.6,111 88.5,111.5 C88.4,112 88.2,112.5 87.9,113.1 C87.3,114.2 86.1,114.7 83.5,114.7 C80.9,114.7 79.4,114.2 78.8,113.2 C78.4,112.5 78.2,111.6 78.2,110.6 C78,110.9 77.7,111.3 77.1,111.9 C76.5,112.4 75.9,112.9 75.4,113.3 C73.9,114.2 72.3,114.6 70.6,114.6 L70.6,114.6 Z" id="Shape" fill="#333333"></path>
                <path d="M233,114.6 C228.8,114.6 225.2,113 222.4,109.8 C219.6,106.6 218.8,102.7 218.8,98.1 L218.8,87.1 C218.8,86.1 218.8,85.4 218.9,84.9 C219,84.4 219.1,83.9 219.4,83.3 C220,82.2 221.1,81.6 223.8,81.6 C226.7,81.6 228.5,82.4 229,84 C229.3,84.7 229.4,85.7 229.4,87.2 L229.4,98.8 C229.4,100.5 229.9,101.9 230.9,102.8 C231.9,103.8 233.2,104.2 234.9,104.2 C236.6,104.2 237.9,103.7 238.9,102.7 C239.9,101.7 240.4,100.4 240.4,98.7 L240.4,87 C240.4,86 240.4,85.3 240.5,84.8 C240.6,84.3 240.8,83.8 241.1,83.1 C241.6,82 243.3,81.5 246,81.5 C248.6,81.5 249.8,82.1 250.4,83.2 C250.7,83.8 250.9,84.4 250.9,84.9 C251,85.4 251,86.1 251,87.1 L251,109.4 C251,110.3 251,111 250.9,111.5 C250.8,112 250.6,112.5 250.3,113.1 C249.7,114.2 248.5,114.7 245.9,114.7 C243.3,114.7 241.8,114.2 241.2,113.2 C240.8,112.5 240.6,111.6 240.6,110.6 C240.4,110.9 240.1,111.3 239.5,111.9 C238.9,112.4 238.3,112.9 237.8,113.3 C236.2,114.2 234.6,114.6 233,114.6 L233,114.6 Z" id="Shape" fill="#333333"></path>
                <path d="M106.5,75.4 C106.2,76 105.6,76.4 104.8,76.7 C104,77 102.9,77.1 101.6,77.1 C100.3,77.1 99.7,77 98.9,76.7 C98.1,76.4 97.5,76 97.2,75.4 C96.9,74.8 96.7,74.2 96.6,73.7 C96.5,73.2 96.5,72.5 96.5,71.5 C96.5,70.5 96.5,69.8 96.6,69.3 C96.7,68.8 96.8,68.3 97.1,67.7 C97.7,66.6 99.2,66 101.6,66 C104.2,66 105.8,66.6 106.4,67.7 C106.7,68.3 106.9,68.9 107,69.4 C107.1,69.9 107.1,70.6 107.1,71.6 C107.1,72.6 107.1,73.3 107,73.8 C106.9,74.3 106.8,74.8 106.5,75.4 L106.5,75.4 Z M96.5,87.1 C96.5,86.1 96.5,85.4 96.6,84.9 C96.7,84.4 96.8,83.9 97.1,83.2 C97.7,82.1 99.6,81.6 101.6,81.6 C103.6,81.6 105,82 105.9,82.7 C106.6,83.3 107,84.2 107,85.4 C107,85.8 107.1,86.4 107.1,87.2 L107.1,109.3 C107.1,110.3 107.1,111 107,111.5 C106.9,112 106.7,112.5 106.4,113.2 C105.9,114.3 104.2,114.8 101.5,114.8 C99.3,114.8 97.7,114.2 97.1,113.1 C96.8,112.5 96.6,111.9 96.6,111.5 C96.5,111 96.5,110.3 96.5,109.3 L96.5,87.1 L96.5,87.1 Z" id="Shape" fill="#333333"></path>
                <path d="M128.3,103.7 L138.5,103.7 C140.1,103.7 141.2,103.9 141.9,104.3 C142.6,104.7 143.1,105.3 143.3,106.1 C143.5,106.9 143.7,107.9 143.7,109.3 C143.7,110.7 143.6,111.7 143.3,112.4 C143,113.1 142.6,113.8 142,114.1 C141.4,114.4 140.9,114.6 140.4,114.7 C139.9,114.8 139.3,114.8 138.3,114.8 L118,114.8 C116.6,114.8 115.4,114.3 114.3,113.2 C113.3,112.1 112.7,110.8 112.7,109.3 C112.7,107.8 113.2,106.5 114.3,105.4 C115.3,104.3 116.9,102.8 119.1,100.8 C121.3,98.8 123.2,97 125,95.4 C126.8,93.8 127.7,92.9 127.9,92.7 L119.5,92.7 C117.2,92.7 115.8,92.3 115.2,91.5 C114.5,90.6 114.2,89.4 114.2,87.8 C114.2,86.2 114.3,85.2 114.5,84.4 C114.7,83.7 114.9,83.1 115.2,82.8 C115.5,82.4 115.9,82.2 116.4,82 C117.1,81.8 118.1,81.7 119.5,81.7 L137.9,81.7 C139.3,81.7 140.5,82.2 141.6,83.3 C142.6,84.4 143.2,85.7 143.2,87.2 C143.2,88.7 142.6,90.2 141.4,91.4 C140,92.5 135.7,96.6 128.3,103.7 L128.3,103.7 Z" id="Shape" fill="#333333"></path>
                <path d="M151.6,108.3 C150.5,107 148.9,105.7 148.9,104.7 C148.9,103.7 150.9,102.2 152.7,100.4 C153.7,99.4 154.9,98.9 156,98.9 C157.2,98.9 158.8,100 160.9,102 C161.5,102.7 162.3,103.4 163.4,104 C164.5,104.7 165.5,105 166.4,105 C170.3,105 172.3,103.4 172.3,100.2 C172.3,99.2 171.8,98.4 170.7,97.8 C169.6,97.1 168.3,96.7 166.7,96.4 C165.1,96.1 163.4,95.6 161.5,95 C159.7,94.3 157.9,93.6 156.3,92.7 C154.7,91.8 153.4,90.4 152.3,88.5 C151.2,86.6 150.7,84.3 150.7,81.6 C150.7,77.9 152.1,74.7 154.8,71.9 C157.6,69.1 161.3,67.8 166,67.8 C168.5,67.8 170.8,68.1 172.9,68.8 C175,69.5 176.4,70.1 177.2,70.8 L178.8,72 C180.1,73.2 180.8,74.2 180.8,75.1 C180.8,75.9 180.3,77.1 179.3,78.6 C177.9,80.7 176.4,81.7 174.9,81.7 C174,81.7 172.9,81.3 171.6,80.4 C171.5,80.3 171.2,80.1 170.9,79.8 C170.5,79.5 170.2,79.2 169.9,79 C169,78.5 167.9,78.2 166.5,78.2 C165.1,78.2 164,78.5 163.1,79.2 C162.2,79.9 161.7,80.8 161.7,81.9 C161.7,83.1 162.2,84 163.3,84.7 C164.4,85.4 165.7,85.9 167.3,86.1 C168.9,86.4 170.6,86.7 172.5,87.3 C174.4,87.9 176.1,88.5 177.7,89.2 C179.3,89.9 180.6,91.3 181.7,93.1 C182.8,95 183.3,97.3 183.3,100 C183.3,102.7 182.8,105.1 181.7,107.2 C180.6,109.3 179.2,110.9 177.4,112 C174,114.2 170.4,115.3 166.5,115.3 C164.5,115.3 162.7,115.1 160.9,114.6 C159.1,114.1 157.7,113.5 156.6,112.8 C154.4,111.5 152.8,110.2 151.9,108.9 L151.6,108.3 L151.6,108.3 Z" id="Shape" fill="#333333"></path>
                <path d="M206.8,91.1 L202.7,90.8 L202.7,101.1 C202.7,102.2 202.9,103.1 203.2,103.6 C203.6,104.1 204.2,104.4 205.2,104.4 C206.2,104.4 206.9,104.4 207.5,104.5 C208,104.6 208.6,104.8 209.2,105.1 C210.2,105.6 210.6,107.1 210.6,109.3 C210.6,111.9 210,113.6 208.8,114.2 C208.2,114.5 207.6,114.7 207.1,114.7 C206.6,114.8 205.9,114.8 205,114.8 C200.6,114.8 197.8,113.8 195.5,111.8 C193.2,109.8 192.1,106.5 192.1,101.8 L192.1,90.9 C191.3,91 190.4,91.1 189.5,91.1 C188.6,91.1 187.8,90.7 187.2,90 C186.6,89.3 186.3,88.6 186.3,86.8 C186.3,85.9 186.4,85 186.6,84.2 C186.8,83.4 187.1,82.9 187.5,82.5 C188.2,82 189,81.7 190,81.7 L192.1,82 L192.1,75.5 C192.1,74.5 192.1,73.8 192.2,73.4 C192.3,72.9 192.5,72.4 192.8,71.9 C193.3,70.8 194.5,70.3 197.2,70.3 C200.1,70.3 201.8,71.1 202.3,72.6 C202.5,73.3 202.6,74.3 202.6,75.8 L202.6,82 C204.4,81.8 205.8,81.7 206.8,81.7 C207.7,81.7 208.5,81.7 208.9,81.8 C209.4,81.9 209.9,82.1 210.6,82.4 C211.7,82.9 212.2,83.9 212.2,86.2 C212.2,88.8 211.6,89.9 210.5,90.5 C209.9,90.8 209.3,91 208.8,91 C208.5,91.1 207.7,91.1 206.8,91.1 L206.8,91.1 Z" id="Shape" fill="#333333"></path>
                <path d="M279.6,67.7 C279.9,67.1 280.5,66.7 281.3,66.4 C282.1,66.1 282.6,66 284,66 C285.4,66 286.4,66.1 287.2,66.4 C288,66.7 288.6,67.1 288.9,67.7 C289.2,68.3 289.4,68.9 289.5,69.4 C289.6,69.9 289.6,70.6 289.6,71.6 L289.6,109.2 C289.6,110.2 289.6,110.9 289.5,111.4 C289.4,111.9 289.2,112.4 288.9,113 C288.3,114.1 286.5,114.7 283.6,114.7 C280.7,114.7 279.6,113.7 279.2,111.6 C277.4,113.6 275,114.6 271.8,114.6 C268,114.6 264.6,113 261.5,109.7 C258.4,106.4 256.8,102.6 256.8,98.2 C256.8,93.8 258.4,90 261.5,86.6 C264.6,83.3 268.1,81.6 271.8,81.6 C274.9,81.6 277.3,82.7 279,84.7 L279,71.5 C279,70.5 279,69.8 279.1,69.3 C279.1,68.9 279.3,68.3 279.6,67.7 L279.6,67.7 Z M268.6,102.4 C269.8,103.7 271.3,104.3 273,104.3 C274.7,104.3 276.1,103.7 277.3,102.4 C278.4,101.2 279,99.8 279,98.3 C279,96.8 278.5,95.4 277.4,94.1 C276.3,92.8 274.8,92.2 273,92.2 C271.2,92.2 269.7,92.8 268.6,94.1 C267.5,95.4 266.9,96.8 266.9,98.3 C266.9,99.8 267.4,101.1 268.6,102.4 L268.6,102.4 Z" id="Shape" fill="#333333"></path>
                <path d="M50.6,109.7 L46.2,105.3 C47.9,102 48.9,98.2 48.9,94.1 C48.9,80.6 38,69.7 24.5,69.7 C11,69.7 0.1,80.6 0.1,94.1 C0.1,107.6 11,118.5 24.5,118.5 C29.2,118.5 33.6,117.1 37.4,114.8 L49.5,114.8 L49.6,114.8 L49.7,114.8 C50.1,114.8 50.4,114.8 50.7,114.7 C52.9,114.3 53.5,112.6 50.6,109.7 L50.6,109.7 Z M24.6,106.6 C17.7,106.6 12.1,101 12.1,94.1 C12.1,87.2 17.7,81.6 24.6,81.6 C31.5,81.6 37.1,87.2 37.1,94.1 C37.1,101 31.5,106.6 24.6,106.6 L24.6,106.6 Z" id="Shape" fill="#333333"></path>
                <path d="M126.1,36.8 L126.2,36.3 C126.2,34.7 126.7,33.4 127.6,32.4 C128.5,31.5 130.1,30.2 131.1,29.6 C132.6,28.7 133.7,27.9 134.6,27.2 C135.5,26.5 136,25.4 136,24.2 C136,23 135.5,21.9 134.9,21.1 C134,19.9 132.4,18.8 130.2,18.8 C128.8,18.8 127.5,19.3 126.9,19.7 C126.2,20.1 125.7,20.8 125,21.8 C124.4,22.8 124.1,24 123.7,24.5 C123.2,25 122.7,25.3 121.9,25.3 C121.2,25.3 120.2,25.1 119.1,24.6 C116.8,23.7 115.7,22.7 115.7,21.4 C115.7,20.8 115.8,20.3 116,19.7 C116.2,19.1 116.4,18.6 116.6,18.2 C116.7,17.8 117.2,17.1 117.8,16.1 C118.5,15.1 119.5,14.1 120.4,13.4 C121.3,12.7 122.9,11.8 124.5,11.2 C126,10.6 127.8,10.3 129.7,10.3 C133.7,10.3 138.6,12.3 141.1,14.9 C143.6,17.5 144.9,20.5 144.9,23.9 C144.9,25.5 144.6,27 144,28.4 C143.4,29.8 142.7,30.9 141.9,31.7 C140.2,33.3 137,35.2 136.4,35.8 C135.8,36.4 135.5,37.4 135.5,37.7 C135.5,38 135.4,39.2 135.4,39.6 C135.4,40 135.2,41.1 134.9,41.5 C134.6,41.9 134.1,42.2 133.5,42.3 C132.8,42.5 132,42.6 130.9,42.6 C129.8,42.6 128.9,42.5 128.3,42.3 C127.6,42.1 127.2,41.8 126.9,41.3 C126.6,40.8 126.5,40.4 126.4,40.1 C126.1,39.6 126.1,37.5 126.1,36.8 L126.1,36.8 Z M125.9,48.5 C126.2,47.9 126.7,47.5 127.5,47.2 C128.3,46.9 129.5,46.8 131.2,46.8 C132.9,46.8 134.1,47.2 134.8,47.9 C135.5,48.6 135.9,50.1 135.9,52.2 C135.9,53.7 135.7,54.8 135.3,55.6 C134.9,56.3 134.3,56.8 133.6,57.1 C132.8,57.3 131.6,57.5 130,57.5 C128.4,57.5 127.1,57.1 126.3,56.3 C125.7,55.7 125.3,54.6 125.3,53 L125.3,52.1 C125.3,51.2 125.3,50.6 125.4,50.1 C125.4,49.6 125.6,49.1 125.9,48.5 L125.9,48.5 Z" id="Shape" fill="#FFFFFF"></path>
            </g>
        </g>
    </g>
</svg>