<?xml version="1.0" encoding="UTF-8" standalone="no"?>
<svg width="292px" height="53px" viewBox="0 0 292 53" version="1.1" xmlns="http://www.w3.org/2000/svg" xmlns:xlink="http://www.w3.org/1999/xlink" xmlns:sketch="http://www.bohemiancoding.com/sketch/ns">
    <!-- Generator: Sketch 3.4 (15588) - http://www.bohemiancoding.com/sketch -->
    <title>quistud_logo</title>
    <desc>Created with Sketch.</desc>
    <defs></defs>
    <g id="Page-1" stroke="none" stroke-width="1" fill="none" fill-rule="evenodd" sketch:type="MSPage">
        <g id="quistud_logo" sketch:type="MSLayerGroup">
            <path d="M72.3,48.9 C68.1,48.9 64.5,47.3 61.7,44.1 C58.9,40.9 58.1,37 58.1,32.4 L58.1,21.4 C58.1,20.4 58.1,19.7 58.2,19.2 C58.3,18.7 58.4,18.2 58.7,17.6 C59.3,16.5 60.4,15.9 63.1,15.9 C66,15.9 67.8,16.7 68.3,18.3 C68.6,19 68.7,20 68.7,21.5 L68.7,33.1 C68.7,34.8 69.2,36.2 70.2,37.1 C71.2,38.1 72.5,38.5 74.2,38.5 C75.9,38.5 77.2,38 78.2,37 C79.2,36 79.7,34.7 79.7,33 L79.7,21.3 C79.7,20.3 79.7,19.6 79.8,19.1 C79.9,18.6 80.1,18.1 80.4,17.4 C80.9,16.3 82.6,15.8 85.3,15.8 C87.9,15.8 89.1,16.4 89.7,17.5 C90,18.1 90.2,18.7 90.2,19.2 C90.3,19.7 90.3,20.4 90.3,21.4 L90.3,43.7 C90.3,44.6 90.3,45.3 90.2,45.8 C90.1,46.3 89.9,46.8 89.6,47.4 C89,48.5 87.8,49 85.2,49 C82.6,49 81.1,48.5 80.5,47.5 C80.1,46.8 79.9,45.9 79.9,44.9 C79.7,45.2 79.4,45.6 78.8,46.2 C78.2,46.7 77.6,47.2 77.1,47.6 C75.5,48.4 74,48.9 72.3,48.9 L72.3,48.9 Z" id="Shape" fill="#333333" sketch:type="MSShapeGroup"></path>
            <path d="M234.6,48.9 C230.4,48.9 226.8,47.3 224,44.1 C221.2,40.9 220.4,37 220.4,32.4 L220.4,21.4 C220.4,20.4 220.4,19.7 220.5,19.2 C220.6,18.7 220.7,18.2 221,17.6 C221.6,16.5 222.7,15.9 225.4,15.9 C228.3,15.9 230.1,16.7 230.6,18.3 C230.9,19 231,20 231,21.5 L231,33.1 C231,34.8 231.5,36.2 232.5,37.1 C233.5,38.1 234.8,38.5 236.5,38.5 C238.2,38.5 239.5,38 240.5,37 C241.5,36 242,34.7 242,33 L242,21.3 C242,20.3 242,19.6 242.1,19.1 C242.2,18.6 242.4,18.1 242.7,17.4 C243.2,16.3 244.9,15.8 247.6,15.8 C250.2,15.8 251.4,16.4 252,17.5 C252.3,18.1 252.5,18.7 252.5,19.2 C252.6,19.7 252.6,20.4 252.6,21.4 L252.6,43.7 C252.6,44.6 252.6,45.3 252.5,45.8 C252.4,46.3 252.2,46.8 251.9,47.4 C251.3,48.5 250.1,49 247.5,49 C244.9,49 243.4,48.5 242.8,47.5 C242.4,46.8 242.2,45.9 242.2,44.9 C242,45.2 241.7,45.6 241.1,46.2 C240.5,46.7 239.9,47.2 239.4,47.6 C237.9,48.4 236.3,48.9 234.6,48.9 L234.6,48.9 Z" id="Shape" fill="#333333" sketch:type="MSShapeGroup"></path>
            <path d="M108.1,9.7 C107.8,10.3 107.2,10.7 106.4,11 C105.6,11.3 104.5,11.4 103.2,11.4 C101.9,11.4 101.3,11.3 100.5,11 C99.7,10.7 99.1,10.3 98.8,9.7 C98.5,9.1 98.3,8.5 98.2,8 C98.1,7.5 98.1,6.8 98.1,5.8 C98.1,4.8 98.1,4.1 98.2,3.6 C98.3,3.1 98.4,2.6 98.7,2 C99.3,0.9 100.8,0.3 103.2,0.3 C105.8,0.3 107.4,0.9 108,2 C108.3,2.6 108.5,3.2 108.6,3.7 C108.7,4.2 108.7,4.9 108.7,5.9 C108.7,6.9 108.7,7.6 108.6,8.1 C108.5,8.6 108.4,9.1 108.1,9.7 L108.1,9.7 Z M98.2,21.4 C98.2,20.4 98.2,19.7 98.3,19.2 C98.4,18.7 98.5,18.2 98.8,17.5 C99.4,16.4 101.3,15.9 103.3,15.9 C105.3,15.9 106.7,16.3 107.6,17 C108.3,17.6 108.7,18.5 108.7,19.7 C108.7,20.1 108.8,20.7 108.8,21.5 L108.8,43.6 C108.8,44.6 108.8,45.3 108.7,45.8 C108.6,46.3 108.4,46.8 108.1,47.5 C107.6,48.6 105.9,49.1 103.2,49.1 C101,49.1 99.4,48.5 98.8,47.4 C98.5,46.8 98.3,46.2 98.3,45.8 C98.2,45.3 98.2,44.6 98.2,43.6 L98.2,21.4 L98.2,21.4 Z" id="Shape" fill="#333333" sketch:type="MSShapeGroup"></path>
            <path d="M130,37.9 L140.2,37.9 C141.8,37.9 142.9,38.1 143.6,38.5 C144.3,38.9 144.8,39.5 145,40.3 C145.2,41.1 145.4,42.1 145.4,43.5 C145.4,44.9 145.3,45.9 145,46.6 C144.7,47.3 144.3,48 143.7,48.3 C143.1,48.6 142.6,48.8 142.1,48.9 C141.6,49 141,49 140,49 L119.5,49 C118.1,49 116.9,48.5 115.8,47.4 C114.8,46.3 114.2,45 114.2,43.5 C114.2,42 114.7,40.7 115.8,39.6 C116.8,38.5 118.4,37 120.6,35 C122.8,33 124.7,31.2 126.5,29.6 C128.3,28 129.2,27.1 129.4,26.9 L121,26.9 C118.7,26.9 117.3,26.5 116.7,25.7 C116,24.8 115.7,23.6 115.7,22 C115.7,20.4 115.8,19.4 116,18.6 C116.2,17.9 116.4,17.3 116.7,17 C117,16.6 117.4,16.4 117.9,16.2 C118.6,16 119.6,15.9 121,15.9 L139.4,15.9 C140.8,15.9 142,16.4 143.1,17.5 C144.1,18.6 144.7,19.9 144.7,21.4 C144.7,22.9 144.1,24.4 142.9,25.6 C141.7,26.7 137.4,30.9 130,37.9 L130,37.9 Z" id="Shape" fill="#333333" sketch:type="MSShapeGroup"></path>
            <path d="M153.3,42.5 C152.2,41.2 150.6,39.9 150.6,38.9 C150.6,37.9 152.6,36.4 154.4,34.6 C155.4,33.6 156.6,33.1 157.7,33.1 C158.9,33.1 160.5,34.2 162.6,36.2 C163.2,36.9 164,37.6 165.1,38.2 C166.2,38.9 167.2,39.2 168.1,39.2 C172,39.2 174,37.6 174,34.4 C174,33.4 173.5,32.6 172.4,32 C171.3,31.3 170,30.9 168.4,30.6 C166.8,30.3 165.1,29.8 163.2,29.2 C161.4,28.5 159.6,27.8 158,26.9 C156.4,26 155.1,24.6 154,22.7 C152.9,20.8 152.4,18.5 152.4,15.8 C152.4,12.1 153.8,8.9 156.5,6.1 C159.3,3.3 163,2 167.7,2 C170.2,2 172.5,2.3 174.6,3 C176.7,3.7 178.1,4.3 178.9,5 L180.5,6.2 C181.8,7.4 182.5,8.4 182.5,9.3 C182.5,10.1 182,11.3 181,12.8 C179.6,14.9 178.1,15.9 176.6,15.9 C175.7,15.9 174.6,15.5 173.3,14.6 C173.2,14.5 172.9,14.3 172.6,14 C172.2,13.7 171.9,13.4 171.6,13.2 C170.7,12.7 169.6,12.4 168.2,12.4 C166.8,12.4 165.7,12.7 164.8,13.4 C163.9,14.1 163.4,15 163.4,16.1 C163.4,17.3 163.9,18.2 165,18.9 C166.1,19.6 167.4,20.1 169,20.3 C170.6,20.6 172.3,20.9 174.2,21.5 C176.1,22.1 177.8,22.7 179.4,23.4 C181,24.1 182.3,25.5 183.4,27.3 C184.5,29.2 185,31.5 185,34.2 C185,36.9 184.5,39.3 183.4,41.4 C182.3,43.5 180.9,45.1 179.1,46.2 C175.7,48.4 172.1,49.5 168.2,49.5 C166.2,49.5 164.4,49.3 162.6,48.8 C160.8,48.3 159.4,47.7 158.3,47 C156.1,45.7 154.5,44.4 153.6,43.1 L153.3,42.5 L153.3,42.5 Z" id="Shape" fill="#333333" sketch:type="MSShapeGroup"></path>
            <path d="M208.4,25.3 L204.3,25 L204.3,35.3 C204.3,36.4 204.5,37.3 204.8,37.8 C205.2,38.3 205.8,38.6 206.8,38.6 C207.8,38.6 208.5,38.6 209.1,38.7 C209.6,38.8 210.2,39 210.8,39.3 C211.8,39.8 212.2,41.3 212.2,43.5 C212.2,46.1 211.6,47.8 210.4,48.4 C209.8,48.7 209.2,48.9 208.7,48.9 C208.2,49 207.5,49 206.6,49 C202.2,49 199.4,48 197.1,46 C194.8,44 193.7,40.7 193.7,36 L193.7,25.1 C192.9,25.2 192,25.3 191.1,25.3 C190.2,25.3 189.4,24.9 188.8,24.2 C188.2,23.5 187.9,22.8 187.9,21 C187.9,20.1 188,19.2 188.2,18.4 C188.4,17.6 188.7,17.1 189.1,16.7 C189.8,16.2 190.6,15.9 191.6,15.9 L193.7,16.2 L193.7,9.7 C193.7,8.7 193.7,8 193.8,7.6 C193.9,7.1 194.1,6.6 194.4,6.1 C194.9,5 196.1,4.5 198.8,4.5 C201.7,4.5 203.4,5.3 203.9,6.8 C204.1,7.5 204.2,8.5 204.2,10 L204.2,16.2 C206,16 207.4,15.9 208.4,15.9 C209.3,15.9 210.1,15.9 210.5,16 C211,16.1 211.5,16.3 212.2,16.6 C213.3,17.1 213.8,18.1 213.8,20.4 C213.8,23 213.2,24.1 212.1,24.7 C211.5,25 210.9,25.2 210.4,25.2 C210.1,25.3 209.4,25.3 208.4,25.3 L208.4,25.3 Z" id="Shape" fill="#333333" sketch:type="MSShapeGroup"></path>
            <path d="M281.3,2 C281.6,1.4 282.2,1 283,0.7 C283.8,0.4 284.3,0.3 285.7,0.3 C287.1,0.3 288.1,0.4 288.9,0.7 C289.7,1 290.3,1.4 290.6,2 C290.9,2.6 291.1,3.2 291.2,3.7 C291.3,4.2 291.3,4.9 291.3,5.9 L291.3,43.5 C291.3,44.5 291.3,45.2 291.2,45.7 C291.1,46.2 290.9,46.7 290.6,47.3 C290,48.4 288.2,49 285.3,49 C282.4,49 281.3,48 280.9,45.9 C279.1,47.9 276.7,48.9 273.5,48.9 C269.7,48.9 266.3,47.3 263.2,44 C260.1,40.7 258.5,36.9 258.5,32.5 C258.5,28.1 260.1,24.3 263.2,20.9 C266.3,17.6 269.8,15.9 273.5,15.9 C276.6,15.9 279,17 280.7,19 L280.7,5.8 C280.7,4.8 280.7,4.1 280.8,3.6 C280.8,3.1 281,2.6 281.3,2 L281.3,2 Z M270.2,36.6 C271.4,37.9 272.9,38.5 274.6,38.5 C276.3,38.5 277.7,37.9 278.9,36.6 C280,35.4 280.6,34 280.6,32.5 C280.6,31 280.1,29.6 279,28.3 C277.9,27 276.4,26.4 274.6,26.4 C272.7,26.4 271.3,27 270.2,28.3 C269.1,29.6 268.5,31 268.5,32.5 C268.4,34 269,35.4 270.2,36.6 L270.2,36.6 Z" id="Shape" fill="#333333" sketch:type="MSShapeGroup"></path>
            <path d="M52.2604921,43.8196721 L47.7703281,39.3295082 C49.5051642,35.9618852 50.525656,32.0840164 50.525656,27.9 C50.525656,14.1233607 39.4022953,3 25.625656,3 C11.8490167,3 0.725655998,14.1233607 0.725655998,27.9 C0.725655998,41.6766393 11.8490167,52.8 25.625656,52.8 C30.4219675,52.8 34.9121314,51.3713115 38.7900003,49.0241803 L51.1379511,49.0241803 L51.2400003,49.0241803 L51.3420494,49.0241803 C51.7502462,49.0241803 52.0563937,49.0241803 52.3625412,48.9221311 C54.6076232,48.4118852 55.1178691,46.6770492 52.2604921,43.8196721 L52.2604921,43.8196721 Z" id="Shape" fill="#333333" sketch:type="MSShapeGroup"></path>
            <path d="M22.6,31.1 L22.6,30.8 C22.6,29.6 22.9,28.6 23.6,27.9 C24.3,27.2 25.5,26.3 26.2,25.8 C27.4,25.1 28.1,24.5 28.8,24 C29.5,23.5 29.8,22.7 29.8,21.7 C29.8,20.8 29.4,20 29,19.4 C28.3,18.5 27.1,17.7 25.5,17.7 C24.5,17.7 23.5,18.1 23,18.4 C22.5,18.7 22.1,19.2 21.6,20 C21.1,20.8 20.9,21.6 20.6,22 C20.3,22.4 19.8,22.6 19.3,22.6 C18.8,22.6 18.1,22.4 17.2,22.1 C15.5,21.4 14.6,20.6 14.6,19.7 C14.6,19.3 14.7,18.8 14.9,18.4 C15.1,18 15.2,17.6 15.3,17.3 C15.4,17 15.7,16.5 16.2,15.7 C16.7,15 17.5,14.2 18.1,13.7 C18.7,13.1 20,12.5 21.1,12.1 C22.3,11.6 23.6,11.4 25,11.4 C28,11.4 31.7,12.9 33.6,14.9 C35.5,16.8 36.4,19.1 36.4,21.6 C36.4,22.8 36.2,23.9 35.7,25 C35.3,26 34.7,26.8 34.1,27.4 C32.9,28.6 30.4,30 30,30.5 C29.6,30.9 29.3,31.7 29.3,31.9 C29.3,32.2 29.2,33 29.2,33.3 C29.2,33.6 29,34.4 28.8,34.7 C28.6,35 28.2,35.2 27.7,35.3 C27.2,35.4 26.5,35.5 25.7,35.5 C24.9,35.5 24.2,35.4 23.7,35.3 C23.2,35.2 22.9,34.9 22.7,34.6 C22.5,34.3 22.4,34 22.3,33.7 C22.7,33.3 22.6,31.7 22.6,31.1 L22.6,31.1 Z M22.5,39.9 C22.7,39.5 23.1,39.1 23.7,38.9 C24.3,38.7 25.2,38.6 26.4,38.6 C27.6,38.6 28.5,38.9 29.1,39.4 C29.7,40 29.9,41 29.9,42.6 C29.9,43.7 29.8,44.6 29.5,45.1 C29.2,45.7 28.8,46 28.2,46.2 C27.6,46.4 26.7,46.5 25.5,46.5 C24.3,46.5 23.3,46.2 22.7,45.6 C22.2,45.1 22,44.3 22,43.1 L22,42.4 C22,41.7 22,41.3 22.1,40.9 C22.1,40.8 22.2,40.4 22.5,39.9 L22.5,39.9 Z" id="Shape" fill="#FFFFFF" sketch:type="MSShapeGroup"></path>
        </g>
    </g>
</svg>