<svg xmlns="http://www.w3.org/2000/svg" viewBox="0 0 26 26" enable-background="new 0 0 26 26" style="fill: rgb(208, 208, 208);">
    <path d="M 5 0 C 3.3431458 0 2 1.3431458 2 3 C 2 4.6568542 3.3431458 6 5 6 C 6.6568542 6 8 4.6568542 8 3 C 8 1.3431458 6.6568542 0 5 0 z M 21 0 C 19.343146 0 18 1.3431458 18 3 C 18 4.6568542 19.343146 6 21 6 C 22.656854 6 24 4.6568542 24 3 C 24 1.3431458 22.656854 0 21 0 z M 4 7 C 1.8 7 0 8.8 0 11 L 0 15.8125 C 0 16.6125 0.39375 17.19375 1.09375 17.59375 L 1.90625 18 L 2.8125 26 L 7.1875 26 L 8.09375 17.90625 L 8.90625 17.5 C 9.60625 17.2 10 16.4875 10 15.6875 L 10 15.5 C 8.3 15.4 8.10625 15.29375 7.90625 15.09375 C 7.30625 14.59375 7 13.7 7 13 C 7 12.3 7.20625 11.40625 7.90625 10.90625 C 8.10625 10.80625 8.20625 10.7 9.90625 10.5 C 9.70625 8.5 8 7 6 7 L 4 7 z M 20 7 C 18 7 16.29375 8.50625 16.09375 10.40625 C 16.99375 11.20625 17.5875 11.9 17.6875 12 C 17.8875 12.3 18 12.60625 18 12.90625 C 18 13.20625 17.8875 13.6125 17.6875 13.8125 C 17.5875 13.9125 16.99375 14.6 16.09375 15.5 L 16.09375 15.6875 C 16.09375 16.4875 16.4875 17.1 17.1875 17.5 L 18 17.90625 L 18.90625 26 L 23.3125 26 L 24.1875 17.90625 L 25 17.5 C 25.7 17.2 26.09375 16.4875 26.09375 15.6875 L 26.09375 11 C 25.99375 8.8 24.2 7 22 7 L 20 7 z M 12.6875 9.03125 C 12.6 9.03125 12.50625 9.04375 12.40625 9.09375 C 12.20625 9.09375 12.09375 9.3 12.09375 9.5 L 12.09375 11.40625 C 12.09375 11.40625 8.79375 11.7125 8.59375 11.8125 C 8.39375 11.9125 8.1875 12.5 8.1875 13 C 8.1875 13.5 8.29375 14.1125 8.59375 14.3125 C 8.69375 14.5125 12.09375 14.6875 12.09375 14.6875 L 12.09375 16.5 C 12.09375 16.6 12.20625 16.80625 12.40625 16.90625 C 12.50625 17.00625 12.70625 17.00625 12.90625 16.90625 C 14.90625 15.50625 16.80625 13.4125 16.90625 13.3125 C 17.00625 13.2125 17 13.1 17 13 C 17 12.9 17.00625 12.7875 16.90625 12.6875 C 16.80625 12.5875 14.80625 10.49375 12.90625 9.09375 C 12.85625 9.04375 12.775 9.03125 12.6875 9.03125 z"/>
</svg>