<svg width="256px" height="256px" viewBox="0 0 256 256" version="1.1" xmlns="http://www.w3.org/2000/svg" xmlns:xlink="http://www.w3.org/1999/xlink" xmlns:sketch="http://www.bohemiancoding.com/sketch/ns">
    <g id="Page-1" stroke="none" stroke-width="1" fill="none" fill-rule="evenodd" sketch:type="MSPage">
        <g id="Artboard-1" sketch:type="MSArtboardGroup" transform="translate(-636.000000, -50.000000)">
            <g id="free_nl" sketch:type="MSLayerGroup" transform="translate(636.000000, 50.000000)">
                <path d="M11.5458626,116.454137 L-2.84217094e-14,128 L12.2906466,140.290647 L3.03060011,154.414565 L15.8351565,162.8096 L9.89949494,177.139554 L25.1073914,183.438871 L21.9203102,199.46141 L37.4766594,202.555761 L37.4766594,218.495995 L53.9970309,218.495995 L57.2354308,234.776531 L73.0497765,231.630862 L79.1725958,246.412655 L94.2174296,240.180881 L103.376859,253.888936 L116.871863,244.871863 L128,256 L139.869754,244.130246 L154.414565,253.666241 L163.007949,240.559152 L177.139554,246.412655 L183.291657,231.560167 L199.46141,234.776531 L202.69981,218.495995 L218.495995,218.495995 L218.495995,202.69981 L234.776531,199.46141 L231.560167,183.291657 L246.412655,177.139554 L240.305684,162.396021 L253.888936,153.319982 L244.592748,139.407252 L256,128 L244.406195,116.406195 L253.666241,102.282276 L240.43384,93.6067338 L246.412655,79.1725958 L231.630862,73.0497765 L234.776531,57.2354308 L218.495995,53.9970309 L218.495995,37.4766594 L202.555761,37.4766594 L199.46141,21.9203102 L183.438871,25.1073914 L177.139554,9.89949494 L162.194699,16.0898569 L153.319982,2.8079047 L139.824978,11.824978 L128,2.84217094e-14 L115.985302,12.0146976 L102.282276,3.03060011 L93.8050826,15.9604695 L79.1725958,9.89949494 L72.9025616,25.0366963 L57.2354308,21.9203102 L54.1410805,37.4766594 L37.4766594,37.4766594 L37.4766594,54.1410805 L21.9203102,57.2354308 L25.0366963,72.9025616 L9.89949494,79.1725958 L16.2146597,94.4187521 L2.8079047,103.376859 L11.5458626,116.454137 Z" id="Rectangle-1" fill="#333333" sketch:type="MSShapeGroup"></path>
                <text id="GRATIS!" sketch:type="MSTextLayer" font-family="Roboto Condensed" font-size="48" font-style="condensed" font-weight="bold" fill="#FFFFFF">
                    <tspan x="49" y="145">GRATIS!</tspan>
                </text>
            </g>
        </g>
    </g>
</svg>