<svg xmlns="http://www.w3.org/2000/svg" width="26" height="26" viewBox="0 0 26 26" style="fill: rgb(208, 208, 208);">
    <path d="M25.188,6.016c0,0-4.578,0-5.391,0s-0.812-0.812-0.812-0.812V3.844c0-0.449-0.363-0.812-0.812-0.812H7.812 C7.364,3.031,7,3.395,7,3.844v1.359c0,0,0,0.812-0.812,0.812s-5.375,0-5.375,0C0.364,6.016,0,6.379,0,6.828v15.359 C0,22.637,0.364,23,0.812,23h24.375C25.637,23,26,22.637,26,22.188V6.828C26,6.379,25.637,6.016,25.188,6.016z M23,10.257 c-0.693,0-1.257-0.562-1.257-1.257S22.307,7.743,23,7.743S24.257,8.306,24.257,9S23.693,10.257,23,10.257z M13,21.123 c-3.93,0-7.123-3.188-7.123-7.123c0-3.935,3.193-7.123,7.123-7.123c3.93,0,7.123,3.188,7.123,7.123 C20.123,17.936,16.93,21.123,13,21.123z M13,19.458c-3.012,0-5.458-2.443-5.458-5.458S9.988,8.542,13,8.542s5.458,2.443,5.458,5.458 S16.012,19.458,13,19.458z"/>
</svg>