
<svg width="290px" height="119px" viewBox="0 0 290 119" version="1.1" xmlns="http://www.w3.org/2000/svg" xmlns:xlink="http://www.w3.org/1999/xlink" xmlns:sketch="http://www.bohemiancoding.com/sketch/ns">
    <g id="Page-1" stroke="none" stroke-width="1" fill="none" fill-rule="evenodd" sketch:type="MSPage">
        <g id="Logo-Def-Quizstud-RGB2" sketch:type="MSLayerGroup" transform="translate(-157.000000, -50.000000)">
            <g id="Group" transform="translate(157.000000, 50.000000)" sketch:type="MSShapeGroup">
                <path d="M172.1,51.4 C169.9,49.2 166,45.3 163.1,42.4 C163.9,39.5 164.3,36.5 164.3,33.4 C164.3,15 149.3,-7.10542736e-15 130.9,-7.10542736e-15 C112.5,-7.10542736e-15 97.5,15 97.5,33.4 C97.5,51.8 112.5,66.8 130.9,66.8 C140.1,66.8 148.3,63.1 154.4,57.2 L170,57.2 C174.2,57.1 175.2,54.4 172.1,51.4 L172.1,51.4 Z" id="Shape" fill="#333333"></path>
                <g transform="translate(0.000000, 10.000000)" id="Shape">
                    <path d="M126.1,26.7 L126.2,26.2 C126.2,24.6 126.7,23.3 127.6,22.3 C128.5,21.4 130.1,20.1 131.1,19.5 C132.6,18.6 133.7,17.8 134.6,17.1 C135.5,16.4 136,15.3 136,14.1 C136,12.9 135.5,11.8 134.9,11 C134,9.8 132.4,8.7 130.2,8.7 C128.8,8.7 127.5,9.2 126.9,9.6 C126.2,10 125.7,10.7 125,11.7 C124.4,12.7 124.1,13.9 123.7,14.4 C123.2,14.9 122.7,15.2 121.9,15.2 C121.2,15.2 120.2,15 119.1,14.5 C116.8,13.6 115.7,12.6 115.7,11.3 C115.7,10.7 115.8,10.2 116,9.6 C116.2,9 116.4,8.5 116.6,8.1 C116.7,7.7 117.2,7 117.8,6 C118.5,5 119.5,4 120.4,3.3 C121.3,2.6 122.9,1.7 124.5,1.1 C126,0.5 127.8,0.2 129.7,0.2 C133.7,0.2 138.6,2.2 141.1,4.8 C143.6,7.4 144.9,10.4 144.9,13.8 C144.9,15.4 144.6,16.9 144,18.3 C143.4,19.7 142.7,20.8 141.9,21.6 C140.2,23.2 137,25.1 136.4,25.7 C135.8,26.3 135.5,27.3 135.5,27.6 C135.5,27.9 135.4,29.1 135.4,29.5 C135.4,29.9 135.2,31 134.9,31.4 C134.6,31.8 134.1,32.1 133.5,32.2 C132.8,32.4 132,32.5 130.9,32.5 C129.8,32.5 128.9,32.4 128.3,32.2 C127.6,32 127.2,31.7 126.9,31.2 C126.6,30.7 126.5,30.3 126.4,30 C126.1,29.6 126.1,27.5 126.1,26.7 L126.1,26.7 Z M125.9,38.5 C126.2,37.9 126.7,37.5 127.5,37.2 C128.3,36.9 129.5,36.8 131.2,36.8 C132.9,36.8 134.1,37.2 134.8,37.9 C135.5,38.6 135.9,40.1 135.9,42.2 C135.9,43.7 135.7,44.8 135.3,45.6 C134.9,46.3 134.3,46.8 133.6,47.1 C132.8,47.3 131.6,47.5 130,47.5 C128.4,47.5 127.1,47.1 126.3,46.3 C125.7,45.7 125.3,44.6 125.3,43 L125.3,42 C125.3,41.1 125.3,40.5 125.4,40 C125.4,39.6 125.6,39.1 125.9,38.5 L125.9,38.5 Z" fill="#FFFFFF"></path>
                    <g transform="translate(56.000000, 56.000000)" fill="#333333">
                        <path d="M14.6,48.6 C10.4,48.6 6.8,47 4,43.8 C1.2,40.6 0.4,36.7 0.4,32.1 L0.4,21.1 C0.4,20.1 0.4,19.4 0.5,18.9 C0.6,18.4 0.7,17.9 1,17.3 C1.6,16.2 2.7,15.6 5.4,15.6 C8.3,15.6 10.1,16.4 10.6,18 C10.9,18.7 11,19.7 11,21.2 L11,32.8 C11,34.5 11.5,35.9 12.5,36.8 C13.5,37.8 14.8,38.2 16.5,38.2 C18.2,38.2 19.5,37.7 20.5,36.7 C21.5,35.7 22,34.4 22,32.7 L22,21 C22,20 22,19.3 22.1,18.8 C22.2,18.3 22.4,17.8 22.7,17.1 C23.2,16 24.9,15.5 27.6,15.5 C30.2,15.5 31.4,16.1 32,17.2 C32.3,17.8 32.5,18.4 32.5,18.9 C32.6,19.4 32.6,20.1 32.6,21.1 L32.6,43.4 C32.6,44.3 32.6,45 32.5,45.5 C32.4,46 32.2,46.5 31.9,47.1 C31.3,48.2 30.1,48.7 27.5,48.7 C24.9,48.7 23.4,48.2 22.8,47.2 C22.4,46.5 22.2,45.6 22.2,44.6 C22,44.9 21.7,45.3 21.1,45.9 C20.5,46.4 19.9,46.9 19.4,47.3 C17.9,48.1 16.3,48.6 14.6,48.6 L14.6,48.6 Z"></path>
                        <path d="M177,48.6 C172.8,48.6 169.2,47 166.4,43.8 C163.6,40.6 162.8,36.7 162.8,32.1 L162.8,21.1 C162.8,20.1 162.8,19.4 162.9,18.9 C163,18.4 163.1,17.9 163.4,17.3 C164,16.2 165.1,15.6 167.8,15.6 C170.7,15.6 172.5,16.4 173,18 C173.3,18.7 173.4,19.7 173.4,21.2 L173.4,32.8 C173.4,34.5 173.9,35.9 174.9,36.8 C175.9,37.8 177.2,38.2 178.9,38.2 C180.6,38.2 181.9,37.7 182.9,36.7 C183.9,35.7 184.4,34.4 184.4,32.7 L184.4,21 C184.4,20 184.4,19.3 184.5,18.8 C184.6,18.3 184.8,17.8 185.1,17.1 C185.6,16 187.3,15.5 190,15.5 C192.6,15.5 193.8,16.1 194.4,17.2 C194.7,17.8 194.9,18.4 194.9,18.9 C195,19.4 195,20.1 195,21.1 L195,43.4 C195,44.3 195,45 194.9,45.5 C194.8,46 194.6,46.5 194.3,47.1 C193.7,48.2 192.5,48.7 189.9,48.7 C187.3,48.7 185.8,48.2 185.2,47.2 C184.8,46.5 184.6,45.6 184.6,44.6 C184.4,44.9 184.1,45.3 183.5,45.9 C182.9,46.4 182.3,46.9 181.8,47.3 C180.2,48.1 178.6,48.6 177,48.6 L177,48.6 Z"></path>
                        <path d="M50.5,9.4 C50.2,10 49.6,10.4 48.8,10.7 C48,11 46.9,11.1 45.6,11.1 C44.3,11.1 43.7,11 42.9,10.7 C42.1,10.4 41.5,10 41.2,9.4 C40.9,8.8 40.7,8.2 40.6,7.7 C40.5,7.2 40.5,6.5 40.5,5.5 C40.5,4.5 40.5,3.8 40.6,3.3 C40.7,2.8 40.8,2.3 41.1,1.7 C41.7,0.6 43.2,-1.42108547e-14 45.6,-1.42108547e-14 C48.2,-1.42108547e-14 49.8,0.6 50.4,1.7 C50.7,2.3 50.9,2.9 51,3.4 C51.1,3.9 51.1,4.6 51.1,5.6 C51.1,6.6 51.1,7.3 51,7.8 C50.9,8.3 50.8,8.8 50.5,9.4 L50.5,9.4 Z M40.5,21.1 C40.5,20.1 40.5,19.4 40.6,18.9 C40.7,18.4 40.8,17.9 41.1,17.2 C41.7,16.1 43.6,15.6 45.6,15.6 C47.6,15.6 49,16 49.9,16.7 C50.6,17.3 51,18.2 51,19.4 C51,19.8 51.1,20.4 51.1,21.2 L51.1,43.3 C51.1,44.3 51.1,45 51,45.5 C50.9,46 50.7,46.5 50.4,47.2 C49.9,48.3 48.2,48.8 45.5,48.8 C43.3,48.8 41.7,48.2 41.1,47.1 C40.8,46.5 40.6,45.9 40.6,45.5 C40.5,45 40.5,44.3 40.5,43.3 L40.5,21.1 L40.5,21.1 Z"></path>
                        <path d="M72.3,37.6 L82.5,37.6 C84.1,37.6 85.2,37.8 85.9,38.2 C86.6,38.6 87.1,39.2 87.3,40 C87.5,40.8 87.7,41.8 87.7,43.2 C87.7,44.6 87.6,45.6 87.3,46.3 C87,47 86.6,47.7 86,48 C85.4,48.3 84.9,48.5 84.4,48.6 C83.9,48.7 83.3,48.7 82.3,48.7 L62,48.7 C60.6,48.7 59.4,48.2 58.3,47.1 C57.3,46 56.7,44.7 56.7,43.2 C56.7,41.7 57.2,40.4 58.3,39.3 C59.3,38.2 60.9,36.7 63.1,34.7 C65.3,32.7 67.2,30.9 69,29.3 C70.8,27.7 71.7,26.8 71.9,26.6 L63.5,26.6 C61.2,26.6 59.8,26.2 59.2,25.4 C58.5,24.5 58.2,23.3 58.2,21.7 C58.2,20.1 58.3,19.1 58.5,18.3 C58.7,17.6 58.9,17 59.2,16.7 C59.5,16.3 59.9,16.1 60.4,15.9 C61.1,15.7 62.1,15.6 63.5,15.6 L81.9,15.6 C83.3,15.6 84.5,16.1 85.6,17.2 C86.6,18.3 87.2,19.6 87.2,21.1 C87.2,22.6 86.6,24.1 85.4,25.3 C84,26.4 79.7,30.6 72.3,37.6 L72.3,37.6 Z"></path>
                        <path d="M95.6,42.2 C94.5,40.9 92.9,39.6 92.9,38.6 C92.9,37.6 94.9,36.1 96.7,34.3 C97.7,33.3 98.9,32.8 100,32.8 C101.2,32.8 102.8,33.9 104.9,35.9 C105.5,36.6 106.3,37.3 107.4,37.9 C108.5,38.6 109.5,38.9 110.4,38.9 C114.3,38.9 116.3,37.3 116.3,34.1 C116.3,33.1 115.8,32.3 114.7,31.7 C113.6,31 112.3,30.6 110.7,30.3 C109.1,30 107.4,29.5 105.5,28.9 C103.7,28.2 101.9,27.5 100.3,26.6 C98.7,25.7 97.4,24.3 96.3,22.4 C95.2,20.5 94.7,18.2 94.7,15.5 C94.7,11.8 96.1,8.6 98.8,5.8 C101.6,3 105.3,1.7 110,1.7 C112.5,1.7 114.8,2 116.9,2.7 C119,3.4 120.4,4 121.2,4.7 L122.8,5.9 C124.1,7.1 124.8,8.1 124.8,9 C124.8,9.8 124.3,11 123.3,12.5 C121.9,14.6 120.4,15.6 118.9,15.6 C118,15.6 116.9,15.2 115.6,14.3 C115.5,14.2 115.2,14 114.9,13.7 C114.5,13.4 114.2,13.1 113.9,12.9 C113,12.4 111.9,12.1 110.5,12.1 C109.1,12.1 108,12.4 107.1,13.1 C106.2,13.8 105.7,14.7 105.7,15.8 C105.7,17 106.2,17.9 107.3,18.6 C108.4,19.3 109.7,19.8 111.3,20 C112.9,20.3 114.6,20.6 116.5,21.2 C118.4,21.8 120.1,22.4 121.7,23.1 C123.3,23.8 124.6,25.2 125.7,27 C126.8,28.9 127.3,31.2 127.3,33.9 C127.3,36.6 126.8,39 125.7,41.1 C124.6,43.2 123.2,44.8 121.4,45.9 C118,48.1 114.4,49.2 110.5,49.2 C108.5,49.2 106.7,49 104.9,48.5 C103.1,48 101.7,47.4 100.6,46.7 C98.4,45.4 96.8,44.1 95.9,42.8 L95.6,42.2 L95.6,42.2 Z"></path>
                        <path d="M150.8,25 L146.7,24.7 L146.7,35 C146.7,36.1 146.9,37 147.2,37.5 C147.6,38 148.2,38.3 149.2,38.3 C150.2,38.3 150.9,38.3 151.5,38.4 C152,38.5 152.6,38.7 153.2,39 C154.2,39.5 154.6,41 154.6,43.2 C154.6,45.8 154,47.5 152.8,48.1 C152.2,48.4 151.6,48.6 151.1,48.6 C150.6,48.7 149.9,48.7 149,48.7 C144.6,48.7 141.8,47.7 139.5,45.7 C137.2,43.7 136.1,40.4 136.1,35.7 L136.1,24.8 C135.3,24.9 134.4,25 133.5,25 C132.6,25 131.8,24.6 131.2,23.9 C130.6,23.2 130.3,22.5 130.3,20.7 C130.3,19.8 130.4,18.9 130.6,18.1 C130.8,17.3 131.1,16.8 131.5,16.4 C132.2,15.9 133,15.6 134,15.6 L136.1,15.9 L136.1,9.4 C136.1,8.4 136.1,7.7 136.2,7.3 C136.3,6.8 136.5,6.3 136.8,5.8 C137.3,4.7 138.5,4.2 141.2,4.2 C144.1,4.2 145.8,5 146.3,6.5 C146.5,7.2 146.6,8.2 146.6,9.7 L146.6,15.9 C148.4,15.7 149.8,15.6 150.8,15.6 C151.7,15.6 152.5,15.6 152.9,15.7 C153.4,15.8 153.9,16 154.6,16.3 C155.7,16.8 156.2,17.8 156.2,20.1 C156.2,22.7 155.6,23.8 154.5,24.4 C153.9,24.7 153.3,24.9 152.8,24.9 C152.5,25 151.7,25 150.8,25 L150.8,25 Z"></path>
                        <path d="M223.6,1.7 C223.9,1.1 224.5,0.7 225.3,0.4 C226.1,0.1 226.6,0 228,0 C229.4,0 230.4,0.1 231.2,0.4 C232,0.7 232.6,1.1 232.9,1.7 C233.2,2.3 233.4,2.9 233.5,3.4 C233.6,3.9 233.6,4.6 233.6,5.6 L233.6,43.2 C233.6,44.2 233.6,44.9 233.5,45.4 C233.4,45.9 233.2,46.4 232.9,47 C232.3,48.1 230.5,48.7 227.6,48.7 C224.7,48.7 223.6,47.7 223.2,45.6 C221.4,47.6 219,48.6 215.8,48.6 C212,48.6 208.6,47 205.5,43.7 C202.4,40.4 200.8,36.6 200.8,32.2 C200.8,27.8 202.4,24 205.5,20.6 C208.6,17.3 212.1,15.6 215.8,15.6 C218.9,15.6 221.3,16.7 223,18.7 L223,5.5 C223,4.5 223,3.8 223.1,3.3 C223.1,2.8 223.3,2.3 223.6,1.7 L223.6,1.7 Z M212.6,36.3 C213.8,37.6 215.3,38.2 217,38.2 C218.7,38.2 220.1,37.6 221.3,36.3 C222.4,35.1 223,33.7 223,32.2 C223,30.7 222.5,29.3 221.4,28 C220.3,26.7 218.8,26.1 217,26.1 C215.2,26.1 213.7,26.7 212.6,28 C211.5,29.3 210.9,30.7 210.9,32.2 C210.9,33.7 211.4,35.1 212.6,36.3 L212.6,36.3 Z"></path>
                    </g>
                    <path d="M50.6,99.7 L46.2,95.3 C47.9,92 48.9,88.2 48.9,84.1 C48.9,70.6 38,59.7 24.5,59.7 C11,59.7 0.1,70.6 0.1,84.1 C0.1,97.6 11,108.5 24.5,108.5 C29.2,108.5 33.6,107.1 37.4,104.8 L49.5,104.8 L49.6,104.8 L49.7,104.8 C50.1,104.8 50.4,104.8 50.7,104.7 C52.9,104.2 53.5,102.5 50.6,99.7 L50.6,99.7 Z M24.6,96.6 C17.7,96.6 12.1,91 12.1,84.1 C12.1,77.2 17.7,71.6 24.6,71.6 C31.5,71.6 37.1,77.2 37.1,84.1 C37.1,91 31.5,96.6 24.6,96.6 L24.6,96.6 Z" fill="#333333"></path>
                </g>
            </g>
        </g>
    </g>
</svg>