<svg xmlns="http://www.w3.org/2000/svg" version="1" viewBox="0 0 26 26" enable-background="new 0 0 26 26" width="52" height="52" style="fill: rgb(255, 255, 255);">
    <path d="M22.3,3c-0.2,0-4.2-0.2-7.6,0.5c-0.3,0.1-0.5,0.2-0.5,0.5c-0.1,0.3,0,0.5,0.2,0.7l2,2l-9.7,9.7l-2-2 c-0.2-0.2-0.5-0.3-0.7-0.2c-0.3,0.1-0.4,0.3-0.5,0.5c-0.6,3.4-0.5,7.4-0.5,7.6c0,0.2,0.1,0.3,0.2,0.4c0.1,0.1,0.3,0.2,0.4,0.2 c0.2,0,4.2,0.2,7.6-0.5c0.3-0.1,0.5-0.2,0.5-0.5c0.1-0.3,0-0.5-0.2-0.7l-2-2l9.7-9.7l2,2c0.2,0.2,0.5,0.3,0.7,0.2 c0.3-0.1,0.4-0.3,0.5-0.5C23.2,7.9,23,3.8,23,3.7c0-0.2-0.1-0.3-0.2-0.4C22.7,3.1,22.5,3.1,22.3,3z"/>
</svg>