<?xml version="1.0" encoding="UTF-8" standalone="no"?>
<svg width="24px" height="24px" viewBox="0 0 24 24" version="1.1" xmlns="http://www.w3.org/2000/svg" xmlns:xlink="http://www.w3.org/1999/xlink">
    <!-- Generator: Sketch 39.1 (31720) - http://www.bohemiancoding.com/sketch -->
    <title>ic_check_filter</title>
    <desc>Created with Sketch.</desc>
    <defs></defs>
    <g id="Page-1" stroke="none" stroke-width="1" fill="none" fill-rule="evenodd">
        <g id="QUIZSTORE_zoek" transform="translate(-1107.000000, -420.000000)" fill="#FF3204">
            <g id="Group-2" transform="translate(505.000000, 338.000000)">
                <g id="list" transform="translate(424.000000, 80.000000)">
                    <g id="row">
                        <g id="check-on" transform="translate(178.000000, 2.000000)">
                            <path d="M21.3333333,0 L2.66666667,0 C1.2,0 0,1.2 0,2.66666667 L0,21.3333333 C0,22.8 1.2,24 2.66666667,24 L21.3333333,24 C22.8,24 24,22.8 24,21.3333333 L24,2.66666667 C24,1.2 22.8,0 21.3333333,0 L21.3333333,0 Z M9.33333333,18.6666667 L2.66666667,12.2564103 L4.53333333,10.4615385 L9.33333333,15.0769231 L19.4666667,5.33333333 L21.3333333,7.12820513 L9.33333333,18.6666667 L9.33333333,18.6666667 Z" id="ic_check_filter"></path>
                        </g>
                    </g>
                </g>
            </g>
        </g>
    </g>
</svg>