<?xml version="1.0" encoding="UTF-8" standalone="no"?>
<svg width="33px" height="32px" viewBox="0 0 33 32" version="1.1" xmlns="http://www.w3.org/2000/svg" xmlns:xlink="http://www.w3.org/1999/xlink">
    <!-- Generator: Sketch 39.1 (31720) - http://www.bohemiancoding.com/sketch -->
    <title>ic_filter</title>
    <desc>Created with Sketch.</desc>
    <defs></defs>
    <g id="Symbols" stroke="none" stroke-width="1" fill="none" fill-rule="evenodd">
        <g id="fab" transform="translate(-11.000000, -12.000000)" fill="#FFFFFF">
            <g id="Horizontal-Settings-Mixer-Filled" transform="translate(11.000000, 12.000000)">
                <path d="M10.4347826,0 C9.25217391,0 8.34782609,0.904347826 8.34782609,2.08695652 L8.34782609,3.47826087 L1.39130435,3.47826087 C1.36957717,3.47724139 1.34781413,3.47724139 1.32608696,3.47826087 C1.30435975,3.47724241 1.28259677,3.47724241 1.26086957,3.47826087 C0.876671478,3.51427944 0.594416212,3.85493235 0.630434783,4.23913043 C0.666453353,4.62332852 1.00710626,4.90558379 1.39130435,4.86956522 L8.34782609,4.86956522 L8.34782609,6.26086957 C8.34782609,7.44347826 9.25217391,8.34782609 10.4347826,8.34782609 L11.826087,8.34782609 C13.0086957,8.34782609 13.9130435,7.44347826 13.9130435,6.26086957 L13.9130435,2.08695652 C13.9130435,0.904347826 13.0086957,0 11.826087,0 L10.4347826,0 L10.4347826,0 Z M14.6086957,3.47826087 L14.6086957,4.86956522 L19.3695652,4.86956522 L29.2173913,4.86956522 L32,4.86956522 C32.2508772,4.87311324 32.4842305,4.74130414 32.6107045,4.52461019 C32.7371785,4.30791624 32.7371785,4.03990985 32.6107045,3.8232159 C32.4842305,3.60652195 32.2508772,3.47471284 32,3.47826087 L29.2173913,3.47826087 L19.3478261,3.47826087 L14.6086957,3.47826087 L14.6086957,3.47826087 Z M22.9565217,11.826087 C21.773913,11.826087 20.8695652,12.7304348 20.8695652,13.9130435 L20.8695652,15.3043478 L1.39130435,15.3043478 C1.36957717,15.3033283 1.34781413,15.3033283 1.32608696,15.3043478 C1.30435975,15.3033294 1.28259677,15.3033294 1.26086957,15.3043478 C0.876671489,15.3403664 0.594416236,15.6810193 0.630434806,16.0652174 C0.666453376,16.4494155 1.00710627,16.7316707 1.39130435,16.6956522 L20.8695652,16.6956522 L20.8695652,18.0869565 C20.8695652,19.2695652 21.773913,20.173913 22.9565217,20.173913 L24.3478261,20.173913 C25.5304348,20.173913 26.4347826,19.2695652 26.4347826,18.0869565 L26.4347826,13.9130435 C26.4347826,12.7304348 25.5304348,11.826087 24.3478261,11.826087 L22.9565217,11.826087 L22.9565217,11.826087 Z M27.1304348,15.3043478 L27.1304348,16.6956522 L29.9130435,16.6956522 L32,16.6956522 C32.2508772,16.6992002 32.4842305,16.5673911 32.6107045,16.3506971 C32.7371785,16.1340032 32.7371785,15.8659968 32.6107045,15.6493029 C32.4842305,15.4326089 32.2508772,15.3007998 32,15.3043478 L29.9130435,15.3043478 L27.1304348,15.3043478 L27.1304348,15.3043478 Z M8.34782609,23.6521739 C7.16521739,23.6521739 6.26086957,24.5565217 6.26086957,25.7391304 L6.26086957,27.1304348 L1.39130435,27.1304348 C1.36957717,27.1294153 1.34781413,27.1294153 1.32608696,27.1304348 C1.30435975,27.1294163 1.28259677,27.1294163 1.26086957,27.1304348 C0.876671489,27.1664534 0.594416236,27.5071063 0.630434806,27.8913043 C0.666453376,28.2755024 1.00710627,28.5577577 1.39130435,28.5217391 L6.26086957,28.5217391 L6.26086957,29.9130435 C6.26086957,31.0956522 7.16521739,32 8.34782609,32 L9.73913043,32 C10.9217391,32 11.826087,31.0956522 11.826087,29.9130435 L11.826087,25.7391304 C11.826087,24.5565217 10.9217391,23.6521739 9.73913043,23.6521739 L8.34782609,23.6521739 L8.34782609,23.6521739 Z M12.5217391,27.1304348 L12.5217391,28.5217391 L17.2826087,28.5217391 L27.1304348,28.5217391 L32,28.5217391 C32.2508772,28.5252872 32.4842305,28.3934781 32.6107045,28.1767841 C32.7371785,27.9600902 32.7371785,27.6920838 32.6107045,27.4753898 C32.4842305,27.2586959 32.2508772,27.1268868 32,27.1304348 L27.1304348,27.1304348 L17.2608696,27.1304348 L12.5217391,27.1304348 L12.5217391,27.1304348 Z" id="ic_filter"></path>
            </g>
        </g>
    </g>
</svg>