<?xml version="1.0" encoding="UTF-8" standalone="no"?>
<svg width="291px" height="53px" viewBox="0 0 291 53" version="1.1" xmlns="http://www.w3.org/2000/svg" xmlns:xlink="http://www.w3.org/1999/xlink">
    <!-- Generator: Sketch 39.1 (31720) - http://www.bohemiancoding.com/sketch -->
    <title>quizstore_logo</title>
    <desc>Created with Sketch.</desc>
    <defs></defs>
    <g id="Symbols" stroke="none" stroke-width="1" fill="none" fill-rule="evenodd">
        <g id="quizstore_logo">
            <path d="M71.3,48.9 C67.1,48.9 63.5,47.3 60.7,44.1 C57.9,40.9 57.1,37 57.1,32.4 L57.1,21.4 C57.1,20.4 57.1,19.7 57.2,19.2 C57.3,18.7 57.4,18.2 57.7,17.6 C58.3,16.5 59.4,15.9 62.1,15.9 C65,15.9 66.8,16.7 67.3,18.3 C67.6,19 67.7,20 67.7,21.5 L67.7,33.1 C67.7,34.8 68.2,36.2 69.2,37.1 C70.2,38.1 71.5,38.5 73.2,38.5 C74.9,38.5 76.2,38 77.2,37 C78.2,36 78.7,34.7 78.7,33 L78.7,21.3 C78.7,20.3 78.7,19.6 78.8,19.1 C78.9,18.6 79.1,18.1 79.4,17.4 C79.9,16.3 81.6,15.8 84.3,15.8 C86.9,15.8 88.1,16.4 88.7,17.5 C89,18.1 89.2,18.7 89.2,19.2 C89.3,19.7 89.3,20.4 89.3,21.4 L89.3,43.7 C89.3,44.6 89.3,45.3 89.2,45.8 C89.1,46.3 88.9,46.8 88.6,47.4 C88,48.5 86.8,49 84.2,49 C81.6,49 80.1,48.5 79.5,47.5 C79.1,46.8 78.9,45.9 78.9,44.9 C78.7,45.2 78.4,45.6 77.8,46.2 C77.2,46.7 76.6,47.2 76.1,47.6 C74.5,48.4 73,48.9 71.3,48.9 L71.3,48.9 Z" id="Shape" fill="#333333"></path>
            <path d="M233.6,48.9 C229.4,48.9 225.8,47.3 223,44.1 C220.2,40.9 219.4,37 219.4,32.4 L219.4,21.4 C219.4,20.4 219.4,19.7 219.5,19.2 C219.6,18.7 219.7,18.2 220,17.6 C220.6,16.5 221.7,15.9 224.4,15.9 C227.3,15.9 229.1,16.7 229.6,18.3 C229.9,19 230,20 230,21.5 L230,33.1 C230,34.8 230.5,36.2 231.5,37.1 C232.5,38.1 233.8,38.5 235.5,38.5 C237.2,38.5 238.5,38 239.5,37 C240.5,36 241,34.7 241,33 L241,21.3 C241,20.3 241,19.6 241.1,19.1 C241.2,18.6 241.4,18.1 241.7,17.4 C242.2,16.3 243.9,15.8 246.6,15.8 C249.2,15.8 250.4,16.4 251,17.5 C251.3,18.1 251.5,18.7 251.5,19.2 C251.6,19.7 251.6,20.4 251.6,21.4 L251.6,43.7 C251.6,44.6 251.6,45.3 251.5,45.8 C251.4,46.3 251.2,46.8 250.9,47.4 C250.3,48.5 249.1,49 246.5,49 C243.9,49 242.4,48.5 241.8,47.5 C241.4,46.8 241.2,45.9 241.2,44.9 C241,45.2 240.7,45.6 240.1,46.2 C239.5,46.7 238.9,47.2 238.4,47.6 C236.9,48.4 235.3,48.9 233.6,48.9 L233.6,48.9 Z" id="Shape" fill="#333333"></path>
            <path d="M107.1,9.7 C106.8,10.3 106.2,10.7 105.4,11 C104.6,11.3 103.5,11.4 102.2,11.4 C100.9,11.4 100.3,11.3 99.5,11 C98.7,10.7 98.1,10.3 97.8,9.7 C97.5,9.1 97.3,8.5 97.2,8 C97.1,7.5 97.1,6.8 97.1,5.8 C97.1,4.8 97.1,4.1 97.2,3.6 C97.3,3.1 97.4,2.6 97.7,2 C98.3,0.9 99.8,0.3 102.2,0.3 C104.8,0.3 106.4,0.9 107,2 C107.3,2.6 107.5,3.2 107.6,3.7 C107.7,4.2 107.7,4.9 107.7,5.9 C107.7,6.9 107.7,7.6 107.6,8.1 C107.5,8.6 107.4,9.1 107.1,9.7 L107.1,9.7 Z M97.2,21.4 C97.2,20.4 97.2,19.7 97.3,19.2 C97.4,18.7 97.5,18.2 97.8,17.5 C98.4,16.4 100.3,15.9 102.3,15.9 C104.3,15.9 105.7,16.3 106.6,17 C107.3,17.6 107.7,18.5 107.7,19.7 C107.7,20.1 107.8,20.7 107.8,21.5 L107.8,43.6 C107.8,44.6 107.8,45.3 107.7,45.8 C107.6,46.3 107.4,46.8 107.1,47.5 C106.6,48.6 104.9,49.1 102.2,49.1 C100,49.1 98.4,48.5 97.8,47.4 C97.5,46.8 97.3,46.2 97.3,45.8 C97.2,45.3 97.2,44.6 97.2,43.6 L97.2,21.4 L97.2,21.4 Z" id="Shape" fill="#333333"></path>
            <path d="M139.2,37.9 C140.8,37.9 141.9,38.1 142.6,38.5 C143.3,38.9 143.8,39.5 144,40.3 C144.2,41.1 144.4,42.1 144.4,43.5 C144.4,44.9 144.3,45.9 144,46.6 C143.7,47.3 143.3,48 142.7,48.3 C142.1,48.6 141.6,48.8 141.1,48.9 C140.6,49 140,49 139,49 L118.5,49 C117.1,49 115.9,48.5 114.8,47.4 C113.8,46.3 113.2,45 113.2,43.5 C113.2,42 113.7,40.7 114.8,39.6 C115.8,38.5 117.4,37 119.6,35 C121.8,33 123.7,31.2 125.5,29.6 C127.3,28 128.2,27.1 128.4,26.9 L120,26.9 C117.7,26.9 116.3,26.5 115.7,25.7 C115,24.8 114.7,23.6 114.7,22 C114.7,20.4 114.8,19.4 115,18.6 C115.2,17.9 115.4,17.3 115.7,17 C116,16.6 116.4,16.4 116.9,16.2 C117.6,16 118.6,15.9 120,15.9 L138.4,15.9 C139.8,15.9 141,16.4 142.1,17.5 C143.1,18.6 143.7,19.9 143.7,21.4 C143.7,22.9 143.1,24.4 141.9,25.6 C140.7,26.7 136.4,30.9 129,37.9 L139.2,37.9 Z" id="Shape" fill="#333333"></path>
            <path d="M152.3,42.5 C151.2,41.2 149.6,39.9 149.6,38.9 C149.6,37.9 151.6,36.4 153.4,34.6 C154.4,33.6 155.6,33.1 156.7,33.1 C157.9,33.1 159.5,34.2 161.6,36.2 C162.2,36.9 163,37.6 164.1,38.2 C165.2,38.9 166.2,39.2 167.1,39.2 C171,39.2 173,37.6 173,34.4 C173,33.4 172.5,32.6 171.4,32 C170.3,31.3 169,30.9 167.4,30.6 C165.8,30.3 164.1,29.8 162.2,29.2 C160.4,28.5 158.6,27.8 157,26.9 C155.4,26 154.1,24.6 153,22.7 C151.9,20.8 151.4,18.5 151.4,15.8 C151.4,12.1 152.8,8.9 155.5,6.1 C158.3,3.3 162,2 166.7,2 C169.2,2 171.5,2.3 173.6,3 C175.7,3.7 177.1,4.3 177.9,5 L179.5,6.2 C180.8,7.4 181.5,8.4 181.5,9.3 C181.5,10.1 181,11.3 180,12.8 C178.6,14.9 177.1,15.9 175.6,15.9 C174.7,15.9 173.6,15.5 172.3,14.6 C172.2,14.5 171.9,14.3 171.6,14 C171.2,13.7 170.9,13.4 170.6,13.2 C169.7,12.7 168.6,12.4 167.2,12.4 C165.8,12.4 164.7,12.7 163.8,13.4 C162.9,14.1 162.4,15 162.4,16.1 C162.4,17.3 162.9,18.2 164,18.9 C165.1,19.6 166.4,20.1 168,20.3 C169.6,20.6 171.3,20.9 173.2,21.5 C175.1,22.1 176.8,22.7 178.4,23.4 C180,24.1 181.3,25.5 182.4,27.3 C183.5,29.2 184,31.5 184,34.2 C184,36.9 183.5,39.3 182.4,41.4 C181.3,43.5 179.9,45.1 178.1,46.2 C174.7,48.4 171.1,49.5 167.2,49.5 C165.2,49.5 163.4,49.3 161.6,48.8 C159.8,48.3 158.4,47.7 157.3,47 C155.1,45.7 153.5,44.4 152.6,43.1 L152.3,42.5 L152.3,42.5 Z" id="Shape" fill="#333333"></path>
            <path d="M207.4,25.3 L203.3,25 L203.3,35.3 C203.3,36.4 203.5,37.3 203.8,37.8 C204.2,38.3 204.8,38.6 205.8,38.6 C206.8,38.6 207.5,38.6 208.1,38.7 C208.6,38.8 209.2,39 209.8,39.3 C210.8,39.8 211.2,41.3 211.2,43.5 C211.2,46.1 210.6,47.8 209.4,48.4 C208.8,48.7 208.2,48.9 207.7,48.9 C207.2,49 206.5,49 205.6,49 C201.2,49 198.4,48 196.1,46 C193.8,44 192.7,40.7 192.7,36 L192.7,25.1 C191.9,25.2 191,25.3 190.1,25.3 C189.2,25.3 188.4,24.9 187.8,24.2 C187.2,23.5 186.9,22.8 186.9,21 C186.9,20.1 187,19.2 187.2,18.4 C187.4,17.6 187.7,17.1 188.1,16.7 C188.8,16.2 189.6,15.9 190.6,15.9 L192.7,16.2 L192.7,9.7 C192.7,8.7 192.7,8 192.8,7.6 C192.9,7.1 193.1,6.6 193.4,6.1 C193.9,5 195.1,4.5 197.8,4.5 C200.7,4.5 202.4,5.3 202.9,6.8 C203.1,7.5 203.2,8.5 203.2,10 L203.2,16.2 C205,16 206.4,15.9 207.4,15.9 C208.3,15.9 209.1,15.9 209.5,16 C210,16.1 210.5,16.3 211.2,16.6 C212.3,17.1 212.8,18.1 212.8,20.4 C212.8,23 212.2,24.1 211.1,24.7 C210.5,25 209.9,25.2 209.4,25.2 C209.1,25.3 208.4,25.3 207.4,25.3 L207.4,25.3 Z" id="Shape" fill="#333333"></path>
            <path d="M280.3,2 C280.6,1.4 281.2,1 282,0.7 C282.8,0.4 283.3,0.3 284.7,0.3 C286.1,0.3 287.1,0.4 287.9,0.7 C288.7,1 289.3,1.4 289.6,2 C289.9,2.6 290.1,3.2 290.2,3.7 C290.3,4.2 290.3,4.9 290.3,5.9 L290.3,43.5 C290.3,44.5 290.3,45.2 290.2,45.7 C290.1,46.2 289.9,46.7 289.6,47.3 C289,48.4 287.2,49 284.3,49 C281.4,49 280.3,48 279.9,45.9 C278.1,47.9 275.7,48.9 272.5,48.9 C268.7,48.9 265.3,47.3 262.2,44 C259.1,40.7 257.5,36.9 257.5,32.5 C257.5,28.1 259.1,24.3 262.2,20.9 C265.3,17.6 268.8,15.9 272.5,15.9 C275.6,15.9 278,17 279.7,19 L279.7,5.8 C279.7,4.8 279.7,4.1 279.8,3.6 C279.8,3.1 280,2.6 280.3,2 L280.3,2 Z M269.2,36.6 C270.4,37.9 271.9,38.5 273.6,38.5 C275.3,38.5 276.7,37.9 277.9,36.6 C279,35.4 279.6,34 279.6,32.5 C279.6,31 279.1,29.6 278,28.3 C276.9,27 275.4,26.4 273.6,26.4 C271.7,26.4 270.3,27 269.2,28.3 C268.1,29.6 267.5,31 267.5,32.5 C267.4,34 268,35.4 269.2,36.6 L269.2,36.6 Z" id="Shape" fill="#333333"></path>
            <path d="M51.3,44 L46.9,39.6 C48.6,36.3 49.6,32.5 49.6,28.4 C49.6,14.9 38.7,4 25.2,4 C11.7,4 0.8,14.9 0.8,28.4 C0.8,41.9 11.7,52.8 25.2,52.8 C29.9,52.8 34.3,51.4 38.1,49.1 L50.2,49.1 L50.3,49.1 L50.4,49.1 C50.8,49.1 51.1,49.1 51.4,49 C53.6,48.5 54.1,46.8 51.3,44 L51.3,44 Z" id="Shape" fill="#FF3300"></path>
            <path d="M21.6,31.1 L21.6,30.8 C21.6,29.6 21.9,28.6 22.6,27.9 C23.3,27.2 24.5,26.3 25.2,25.8 C26.4,25.1 27.1,24.5 27.8,24 C28.5,23.5 28.8,22.7 28.8,21.7 C28.8,20.8 28.4,20 28,19.4 C27.3,18.5 26.1,17.7 24.5,17.7 C23.5,17.7 22.5,18.1 22,18.4 C21.5,18.7 21.1,19.2 20.6,20 C20.1,20.8 19.9,21.6 19.6,22 C19.3,22.4 18.8,22.6 18.3,22.6 C17.8,22.6 17.1,22.4 16.2,22.1 C14.5,21.4 13.6,20.6 13.6,19.7 C13.6,19.3 13.7,18.8 13.9,18.4 C14.1,18 14.2,17.6 14.3,17.3 C14.4,17 14.7,16.5 15.2,15.7 C15.7,15 16.5,14.2 17.1,13.7 C17.7,13.1 19,12.5 20.1,12.1 C21.3,11.6 22.6,11.4 24,11.4 C27,11.4 30.7,12.9 32.6,14.9 C34.5,16.8 35.4,19.1 35.4,21.6 C35.4,22.8 35.2,23.9 34.7,25 C34.3,26 33.7,26.8 33.1,27.4 C31.9,28.6 29.4,30 29,30.5 C28.6,30.9 28.3,31.7 28.3,31.9 C28.3,32.2 28.2,33 28.2,33.3 C28.2,33.6 28,34.4 27.8,34.7 C27.6,35 27.2,35.2 26.7,35.3 C26.2,35.4 25.5,35.5 24.7,35.5 C23.9,35.5 23.2,35.4 22.7,35.3 C22.2,35.2 21.9,34.9 21.7,34.6 C21.5,34.3 21.4,34 21.3,33.7 C21.7,33.3 21.6,31.7 21.6,31.1 L21.6,31.1 Z M21.5,39.9 C21.7,39.5 22.1,39.1 22.7,38.9 C23.3,38.7 24.2,38.6 25.4,38.6 C26.6,38.6 27.5,38.9 28.1,39.4 C28.7,40 28.9,41 28.9,42.6 C28.9,43.7 28.8,44.6 28.5,45.1 C28.2,45.7 27.8,46 27.2,46.2 C26.6,46.4 25.7,46.5 24.5,46.5 C23.3,46.5 22.3,46.2 21.7,45.6 C21.2,45.1 21,44.3 21,43.1 L21,42.4 C21,41.7 21,41.3 21.1,40.9 C21.1,40.8 21.2,40.4 21.5,39.9 L21.5,39.9 Z" id="Shape" fill="#FFFFFF"></path>
        </g>
    </g>
</svg>